<svg width="41" height="40" viewBox="0 0 41 40" fill="none" xmlns="http://www.w3.org/2000/svg">
<g clip-path="url(#clip0_1_226)">
<path d="M34.8073 20.9494H30.8918C30.359 20.9494 29.843 21.0222 29.352 21.1561C28.3834 19.252 26.4059 17.9437 24.1272 17.9437H17.2061C14.9275 17.9437 12.95 19.252 11.9814 21.1561C11.4904 21.0222 10.9744 20.9494 10.4415 20.9494H6.52606C3.2952 20.9494 0.666687 23.5779 0.666687 26.8087V33.0679C0.666687 35.0065 2.2438 36.5836 4.18231 36.5836H37.1511C39.0896 36.5836 40.6667 35.0065 40.6667 33.0679V26.8087C40.6667 23.5779 38.0382 20.9494 34.8073 20.9494ZM11.3468 23.8033V34.2399H4.18231C3.53614 34.2399 3.01044 33.7142 3.01044 33.068V26.8088C3.01044 24.8703 4.58755 23.2932 6.52606 23.2932H10.4415C10.7597 23.2932 11.0677 23.3364 11.361 23.416C11.3525 23.5442 11.3468 23.6731 11.3468 23.8033ZM27.6429 34.2399H13.6905V23.8032C13.6905 21.8647 15.2676 20.2876 17.2061 20.2876H24.1272C26.0658 20.2876 27.6429 21.8647 27.6429 23.8032V34.2399ZM38.3229 33.068C38.3229 33.7142 37.7972 34.2399 37.1511 34.2399H29.9866V23.8032C29.9866 23.6729 29.9808 23.544 29.9724 23.4159C30.2657 23.3364 30.5737 23.2931 30.8918 23.2931H34.8073C36.7458 23.2931 38.3229 24.8702 38.3229 26.8087V33.068Z" fill="#161949"/>
<path d="M8.48388 9.88312C5.61286 9.88312 3.27716 12.2188 3.27716 15.0898C3.27708 17.9609 5.61286 20.2966 8.48388 20.2966C11.3548 20.2966 13.6906 17.9609 13.6906 15.0898C13.6906 12.2188 11.3549 9.88312 8.48388 9.88312ZM8.4838 17.9528C6.90513 17.9528 5.62083 16.6685 5.62083 15.0898C5.62083 13.5112 6.90513 12.2269 8.4838 12.2269C10.0625 12.2269 11.3468 13.5112 11.3468 15.0898C11.3468 16.6685 10.0625 17.9528 8.4838 17.9528Z" fill="#161949"/>
<path d="M20.6667 3.41632C16.831 3.41632 13.7106 6.53679 13.7106 10.3724C13.7106 14.208 16.831 17.3285 20.6667 17.3285C24.5023 17.3285 27.6228 14.208 27.6228 10.3724C27.6228 6.53687 24.5023 3.41632 20.6667 3.41632ZM20.6667 14.9848C18.1234 14.9848 16.0543 12.9157 16.0543 10.3724C16.0543 7.82921 18.1234 5.76007 20.6667 5.76007C23.2099 5.76007 25.279 7.82913 25.279 10.3724C25.279 12.9157 23.2099 14.9848 20.6667 14.9848Z" fill="#161949"/>
<path d="M32.8495 9.88312C29.9785 9.88312 27.6428 12.2188 27.6428 15.0898C27.6428 17.9609 29.9785 20.2966 32.8495 20.2966C35.7205 20.2966 38.0562 17.9609 38.0562 15.0898C38.0562 12.2188 35.7205 9.88312 32.8495 9.88312ZM32.8495 17.9528C31.2709 17.9528 29.9865 16.6685 29.9865 15.0898C29.9866 13.5112 31.2709 12.2269 32.8495 12.2269C34.4282 12.2269 35.7124 13.5112 35.7124 15.0898C35.7124 16.6685 34.4282 17.9528 32.8495 17.9528Z" fill="#161949"/>
</g>
<defs>
<clipPath id="clip0_1_226">
<rect width="40" height="40" fill="white" transform="translate(0.666687)"/>
</clipPath>
</defs>
</svg>
