<svg width="41" height="40" viewBox="0 0 41 40" fill="none" xmlns="http://www.w3.org/2000/svg">
<g clip-path="url(#clip0_1_219)">
<path d="M40.1762 19.4143L37.8108 15.3168V10.5861C37.8108 10.1674 37.5874 9.78043 37.2248 9.57113L33.1274 7.20582L30.7622 3.10847C30.5528 2.74589 30.166 2.52253 29.7473 2.52253H25.0165L20.919 0.157065C20.5565 -0.0521533 20.1099 -0.0522314 19.7472 0.157065L15.6498 2.52246H10.9191C10.5004 2.52246 10.1135 2.74582 9.90417 3.10847L7.53893 7.20582L3.44151 9.57113C3.07885 9.78043 2.85549 10.1673 2.85549 10.5861V15.3168L0.490103 19.4143C0.280806 19.7768 0.280806 20.2234 0.490103 20.586L2.85541 24.6835V29.4142C2.85541 29.8328 3.07877 30.2198 3.44143 30.4291L7.53885 32.7944L9.90417 36.8918C10.1135 37.2544 10.5003 37.4778 10.9191 37.4778H15.6499L19.7473 39.8432C19.9285 39.9478 20.1309 40.0001 20.3332 40.0001C20.5356 40.0001 20.7378 39.9478 20.9191 39.8432L25.0165 37.4778H29.7472C30.1659 37.4778 30.5528 37.2544 30.7621 36.8918L33.1274 32.7945L37.2247 30.4292C37.5874 30.2199 37.8107 29.833 37.8107 29.4143V24.6836L40.1761 20.5861C40.3855 20.2234 40.3855 19.7768 40.1762 19.4143ZM35.624 23.7836C35.5213 23.9618 35.4671 24.1639 35.4671 24.3696V28.7376L31.6837 30.9217C31.5055 31.0245 31.3575 31.1725 31.2546 31.3507L29.0706 35.134H24.7025C24.4968 35.134 24.2948 35.1882 24.1167 35.291L20.3331 37.4751L16.5497 35.291C16.3716 35.1882 16.1695 35.134 15.9638 35.134H11.5956L9.41159 31.3507C9.30877 31.1725 9.16081 31.0245 8.98252 30.9216L5.19909 28.7375V24.3695C5.19909 24.1638 5.14495 23.9618 5.04213 23.7836L2.85815 20.0001L5.04229 16.2166C5.1451 16.0385 5.19924 15.8364 5.19924 15.6307V11.2627L8.98268 9.07863C9.16088 8.97582 9.30885 8.82785 9.41174 8.64957L11.5958 4.86621H15.9639C16.1696 4.86621 16.3717 4.81207 16.5499 4.70925L20.3331 2.52511L24.1167 4.70925C24.2948 4.81207 24.4968 4.86621 24.7025 4.86621H29.0706L31.2546 8.64957C31.3575 8.82777 31.5055 8.97574 31.6837 9.07855L35.4671 11.2626V15.6307C35.4671 15.8364 35.5212 16.0384 35.624 16.2166L37.8081 20.0001L35.624 23.7836Z" fill="#161949"/>
<path d="M28.501 15.0625H25.2709V13.0963C25.2709 10.7154 23.3448 8.78638 20.9609 8.78638H19.0781C18.4309 8.78638 17.9062 9.31106 17.9062 9.95825V13.4276C17.9062 14.6257 17.2847 15.7108 16.2684 16.3176H11.5469C10.8997 16.3176 10.375 16.8423 10.375 17.4895V27.5312C10.375 28.1784 10.8997 28.7031 11.5469 28.7031H27.1058C28.8448 28.7031 30.323 27.5175 30.7005 25.8199L32.0952 19.5434C32.3384 18.4475 32.0754 17.3167 31.3732 16.4405C30.6705 15.5647 29.6237 15.0625 28.501 15.0625ZM12.7188 18.6615H15.3959V26.3593H12.7188V18.6615ZM29.8073 19.0353L28.4127 25.3112C28.2754 25.9283 27.738 26.3594 27.1058 26.3594H17.7396V18.1598C19.3045 17.1058 20.25 15.3525 20.25 13.4277V11.1302H20.9609C22.0391 11.1302 22.9271 12.0015 22.9271 13.0964V16.2343C22.9271 16.8815 23.4518 17.4062 24.099 17.4062H28.501C28.9091 17.4062 29.2896 17.5888 29.5447 17.9068C29.8 18.2253 29.8957 18.6368 29.8073 19.0353Z" fill="#161949"/>
</g>
<defs>
<clipPath id="clip0_1_219">
<rect width="40" height="40" fill="white" transform="translate(0.333374)"/>
</clipPath>
</defs>
</svg>
